<svg width="1000" height="1083" viewBox="0 0 1000 1083" fill="none" xmlns="http://www.w3.org/2000/svg">
<path d="M499.604 1C511.828 1 523.835 4.0772 534.418 9.91895V9.91797L963.448 246.906C974.025 252.748 982.803 261.146 988.906 271.253C995.009 281.359 998.223 292.82 998.229 304.484V778.386C998.229 790.056 995.017 801.524 988.914 811.636C982.811 821.748 974.03 830.151 963.448 835.995L534.418 1072.94C523.835 1078.78 511.828 1081.86 499.604 1081.86C487.379 1081.86 475.371 1078.78 464.788 1072.94L35.7812 835.995C25.1997 830.151 16.4177 821.748 10.3145 811.636C4.21136 801.524 1.00046 790.056 1 778.386V304.516L1.00977 303.423C1.20425 292.131 4.40216 281.063 10.3145 271.267C16.4178 261.154 25.1997 252.751 35.7812 246.906L464.788 9.91797L464.789 9.91895C475.372 4.07718 487.379 1.00001 499.604 1Z" fill="white" stroke="white" stroke-width="2"/>
</svg>
